control3min_grf.mot
version=1
nRows=27
nColumns 19
inDegrees=yes
endheader
time	1_ground_force_vx	1_ground_force_vy	1_ground_force_vz	1_ground_force_px	1_ground_force_py	1_ground_force_pz	1_ground_torque_x	1_ground_torque_y	1_ground_torque_z	2_ground_force_vx	2_ground_force_vy	2_ground_force_vz	2_ground_force_px	2_ground_force_py	2_ground_force_pz	2_ground_torque_x	2_ground_torque_y	2_ground_torque_z
            2.502500	            7.800084	          221.985244	          -16.951859	           -0.118330	            0.006062	           -0.362899	            0.020562	            0.585181	           -0.044687	           -1.767041	          248.788913	           50.350943	           -0.097314	            0.006245	           -0.729420	            0.014426	           -2.031164	           -0.411076
            2.503000	            7.618830	          220.359672	          -16.224666	           -0.119788	            0.006058	           -0.361995	            0.024054	            0.695706	           -0.051224	           -1.707687	          245.291260	           50.056870	           -0.096968	            0.006248	           -0.729773	            0.013665	           -1.962847	           -0.400560
            2.503500	            7.345149	          215.311393	          -16.062202	           -0.117874	            0.006062	           -0.362982	            0.024159	            0.708186	           -0.052831	           -1.558764	          242.900023	           49.438203	           -0.097643	            0.006245	           -0.729679	            0.013308	           -2.073713	           -0.422069
            2.504000	            7.712890	          212.967027	          -15.843881	           -0.118645	            0.006059	           -0.362259	            0.025958	            0.716739	           -0.053322	           -1.590431	          238.665271	           49.188470	           -0.097954	            0.006244	           -0.729800	            0.012902	           -1.936058	           -0.399018
            2.504500	            7.393381	          208.459340	          -15.633129	           -0.117629	            0.006060	           -0.362299	            0.020944	            0.590522	           -0.044285	           -1.343882	          235.170000	           48.425037	           -0.097789	            0.006246	           -0.729938	            0.011680	           -2.043912	           -0.420872
            2.505000	            7.440529	          206.294588	          -15.275671	           -0.118340	            0.006059	           -0.362257	            0.019741	            0.547332	           -0.040529	           -1.328658	          230.935083	           48.269140	           -0.096871	            0.006247	           -0.729419	            0.011073	           -1.924575	           -0.402267
            2.505500	            7.579448	          203.048456	          -14.968935	           -0.118059	            0.006058	           -0.362052	            0.019372	            0.518967	           -0.038259	           -1.223783	          227.805912	           47.976362	           -0.097349	            0.006245	           -0.729308	            0.010615	           -1.976041	           -0.416158
            2.506000	            7.580885	          200.162633	          -14.614455	           -0.118153	            0.006059	           -0.362181	            0.022750	            0.600691	           -0.043858	           -1.257587	          224.124784	           47.400103	           -0.097414	            0.006245	           -0.729434	            0.010974	           -1.955684	           -0.413607
            2.506500	            7.399406	          197.275987	          -14.076096	           -0.118230	            0.006058	           -0.362008	            0.022434	            0.598104	           -0.042676	           -1.386503	          220.812270	           46.637486	           -0.097168	            0.006245	           -0.729223	            0.012396	           -1.974128	           -0.416953
            2.507000	            7.217749	          193.488603	          -13.679170	           -0.117457	            0.006059	           -0.362153	            0.024354	            0.652863	           -0.046156	           -1.374725	          217.499121	           46.203307	           -0.097168	            0.006247	           -0.729789	            0.012542	           -1.984265	           -0.421517
            2.507500	            7.172643	          191.324817	          -13.550764	           -0.118624	            0.006058	           -0.361860	            0.023360	            0.623104	           -0.044132	           -1.504120	          214.369241	           45.863700	           -0.097112	            0.006246	           -0.729493	            0.013317	           -1.897925	           -0.406056
            2.508000	            7.448898	          186.637372	          -13.433976	           -0.117152	            0.006062	           -0.362722	            0.018709	            0.468765	           -0.033741	           -1.443436	          210.503307	           45.568313	           -0.096645	            0.006248	           -0.729543	            0.013165	           -1.919896	           -0.415606
            2.508500	            7.174870	          184.112617	          -13.214835	           -0.117217	            0.006060	           -0.362443	            0.012346	            0.316816	           -0.022740	           -1.203390	          208.848332	           45.139947	           -0.097579	            0.006247	           -0.730074	            0.011447	           -1.986544	           -0.429367
            2.509000	            7.176697	          181.586538	          -12.675386	           -0.117345	            0.006057	           -0.361618	            0.014514	            0.367239	           -0.025635	           -1.231816	          203.693516	           44.699216	           -0.096810	            0.006244	           -0.728649	            0.011548	           -1.909564	           -0.419041
            2.509500	            7.361815	          178.880426	          -12.183020	           -0.117299	            0.006059	           -0.362029	            0.019186	            0.466185	           -0.031750	           -1.123638	          199.643748	           44.356224	           -0.096057	            0.006249	           -0.729155	            0.010550	           -1.874546	           -0.416481
            2.510000	            7.316693	          176.176039	          -12.102789	           -0.116979	            0.006059	           -0.362234	            0.023715	            0.571035	           -0.039228	           -1.302000	          197.067186	           43.737040	           -0.096289	            0.006246	           -0.728446	            0.012368	           -1.871961	           -0.415463
            2.510500	            7.272955	          172.748426	          -11.521235	           -0.116747	            0.006060	           -0.362352	            0.025115	            0.596535	           -0.039785	           -1.196379	          193.753174	           43.631317	           -0.096129	            0.006248	           -0.729072	            0.011775	           -1.906906	           -0.429416
            2.511000	            6.952857	          170.224055	          -11.393692	           -0.117229	            0.006058	           -0.361831	            0.021064	            0.515712	           -0.034518	           -1.278862	          190.622991	           43.432474	           -0.096501	            0.006247	           -0.729025	            0.011865	           -1.768490	           -0.402941
            2.511500	            6.816358	          167.699326	          -11.174893	           -0.117261	            0.006058	           -0.361956	            0.015109	            0.371727	           -0.024771	           -1.128631	          187.863609	           42.765565	           -0.096035	            0.006250	           -0.729391	            0.011018	           -1.833979	           -0.417490
            2.512000	            6.909352	          164.273116	          -10.914671	           -0.116987	            0.006057	           -0.361703	            0.016015	            0.380771	           -0.025299	           -1.119450	          185.286552	           42.474797	           -0.096947	            0.006248	           -0.729865	            0.011201	           -1.853957	           -0.424998
            2.512500	            6.589709	          161.747958	          -10.603705	           -0.117484	            0.006057	           -0.361780	            0.014009	            0.343865	           -0.022543	           -1.057334	          181.051469	           42.412737	           -0.096222	            0.006247	           -0.728892	            0.010382	           -1.777810	           -0.416466
            2.513000	            6.682736	          158.141483	          -10.344256	           -0.116595	            0.006058	           -0.361873	            0.015122	            0.357839	           -0.023407	           -1.095770	          178.659221	           41.888006	           -0.096482	            0.006246	           -0.728746	            0.011022	           -1.797055	           -0.421333
            2.513500	            6.499663	          155.257590	          -10.447880	           -0.115892	            0.006060	           -0.362408	            0.018178	            0.434226	           -0.029221	           -1.130218	          175.162067	           41.359333	           -0.096207	            0.006248	           -0.729004	            0.011700	           -1.813303	           -0.428158
            2.514000	            6.409414	          152.371749	          -10.093173	           -0.116305	            0.006061	           -0.362615	            0.016796	            0.399304	           -0.026450	           -0.979823	          172.401346	           41.067848	           -0.096325	            0.006247	           -0.728751	            0.010204	           -1.795412	           -0.427686
            2.514500	            6.548329	          150.387083	           -9.689313	           -0.116753	            0.006059	           -0.362176	            0.014974	            0.343897	           -0.022157	           -1.149381	          167.429524	           40.815547	           -0.094766	            0.006251	           -0.728540	            0.012043	           -1.754253	           -0.427647
            2.515000	            6.320519	          147.681481	           -9.333492	           -0.117016	            0.006059	           -0.362018	            0.011217	            0.262080	           -0.016563	           -1.189166	          165.405725	           40.245202	           -0.095768	            0.006250	           -0.729064	            0.012877	           -1.791148	           -0.435808
            2.515500	            6.367541	          143.714859	           -9.167187	           -0.115881	            0.006063	           -0.362944	            0.012135	            0.273887	           -0.017470	           -1.086162	          162.827971	           40.235963	           -0.096526	            0.006246	           -0.728798	            0.011646	           -1.745833	           -0.431408
